<svg width="20" height="20" viewBox="0 0 20 20" fill="none" xmlns="http://www.w3.org/2000/svg">
<path d="M14.0624 16.8748C14.0624 17.1235 13.9636 17.3619 13.7878 17.5377C13.612 17.7135 13.3735 17.8123 13.1249 17.8123H1.87487C1.62623 17.8123 1.38777 17.7135 1.21196 17.5377C1.03614 17.3619 0.937369 17.1235 0.937369 16.8748C0.937369 16.6262 1.03614 16.3877 1.21196 16.2119C1.38777 16.0361 1.62623 15.9373 1.87487 15.9373H13.1249C13.3735 15.9373 13.612 16.0361 13.7878 16.2119C13.9636 16.3877 14.0624 16.6262 14.0624 16.8748ZM19.671 7.02169C19.6466 7.15238 19.5947 7.27639 19.5187 7.38549C19.4428 7.4946 19.3445 7.58629 19.2303 7.6545L7.71471 14.5311L7.70456 14.5365C7.06625 14.9113 6.32351 15.0687 5.58806 14.985C4.85261 14.9013 4.16422 14.5811 3.62643 14.0725L3.61159 14.0584L0.799087 11.3045C0.613843 11.128 0.474782 10.9087 0.394121 10.6659C0.31346 10.423 0.293668 10.1641 0.336484 9.91184C0.379299 9.65958 0.483413 9.42169 0.639676 9.21907C0.79594 9.01646 0.999572 8.85532 1.23268 8.74981L1.46237 8.63731C1.68449 8.52857 1.94059 8.512 2.17487 8.59122L4.24518 9.28966L5.35065 8.62091L3.93893 7.24825C3.74796 7.07136 3.60421 6.84956 3.52074 6.60299C3.43727 6.35643 3.41672 6.09292 3.46096 5.8364C3.50521 5.57988 3.61283 5.33848 3.77407 5.13412C3.93531 4.92976 4.14505 4.76892 4.38424 4.66622L4.42174 4.65059L4.98034 4.43966C5.19194 4.36059 5.42498 4.36059 5.63659 4.43966L9.71002 5.93731L13.6108 3.60919C14.3169 3.18807 15.1511 3.03526 15.9606 3.17872C16.7702 3.32219 17.501 3.75232 18.0194 4.39044C18.0243 4.39582 18.0287 4.40157 18.0327 4.40762L19.4889 6.27325C19.5708 6.37785 19.6294 6.49873 19.6608 6.6278C19.6922 6.75688 19.6957 6.89117 19.671 7.02169ZM17.3577 6.58887L16.5624 5.56934C16.3266 5.28202 15.9957 5.08872 15.6296 5.02451C15.2635 4.96029 14.8865 5.02942 14.5671 5.21934L10.2881 7.77403C10.1683 7.84627 10.0339 7.89077 9.89466 7.90429C9.75542 7.91781 9.61492 7.9 9.48346 7.85216L5.88971 6.52872L7.53034 8.12247C7.63307 8.22234 7.71155 8.34443 7.75974 8.47936C7.80794 8.61428 7.82456 8.75847 7.80834 8.90082C7.79212 9.04318 7.74349 9.17992 7.66618 9.30055C7.58887 9.42118 7.48494 9.52249 7.36237 9.59669L4.84362 11.1162C4.72738 11.1862 4.59732 11.2302 4.46243 11.245C4.32755 11.2598 4.19105 11.2452 4.06237 11.2022L3.0194 10.8506L4.91862 12.71C5.16281 12.9382 5.47407 13.0816 5.8062 13.1189C6.13834 13.1561 6.47365 13.0854 6.76237 12.917L17.3577 6.58887Z" fill="#475367"/>
</svg>
