<svg width="20" height="20" viewBox="0 0 20 20" fill="none" xmlns="http://www.w3.org/2000/svg">
<path d="M19.6875 16.8745C19.6875 17.1231 19.5887 17.3616 19.4129 17.5374C19.2371 17.7132 18.9986 17.812 18.75 17.812H7.5C7.25136 17.812 7.0129 17.7132 6.83709 17.5374C6.66127 17.3616 6.5625 17.1231 6.5625 16.8745C6.5625 16.6259 6.66127 16.3874 6.83709 16.2116C7.0129 16.0358 7.25136 15.937 7.5 15.937H18.75C18.9986 15.937 19.2371 16.0358 19.4129 16.2116C19.5887 16.3874 19.6875 16.6259 19.6875 16.8745ZM17.2469 14.9643L3.44844 11.1003C2.72691 10.8966 2.09145 10.4632 1.63834 9.86592C1.18524 9.26859 0.9392 8.53985 0.937501 7.79012V3.7495C0.937194 3.50178 0.995787 3.25755 1.10845 3.03694C1.22111 2.81632 1.3846 2.62566 1.58545 2.48067C1.7863 2.33568 2.01874 2.24052 2.26361 2.20304C2.50847 2.16557 2.75873 2.18685 2.99375 2.26512L3.42188 2.40809C3.55613 2.45283 3.67852 2.52737 3.77986 2.62614C3.8812 2.72491 3.95886 2.84534 4.00703 2.9784L4.78125 5.12372L6.5625 5.63153V3.7495C6.56219 3.50178 6.62079 3.25755 6.73345 3.03694C6.84611 2.81632 7.0096 2.62566 7.21045 2.48067C7.4113 2.33568 7.64374 2.24052 7.88861 2.20304C8.13347 2.16557 8.38373 2.18685 8.61875 2.26512L9.04688 2.40809C9.1736 2.45033 9.28982 2.51917 9.38778 2.60998C9.48573 2.70079 9.56315 2.81149 9.61485 2.93465L11.3141 6.98544L15.9234 8.27372C16.6461 8.47688 17.2827 8.91041 17.7365 9.50844C18.1903 10.1065 18.4364 10.8363 18.4375 11.587V14.062C18.4374 14.2067 18.4039 14.3494 18.3395 14.479C18.2751 14.6085 18.1816 14.7214 18.0663 14.8088C17.9509 14.8962 17.817 14.9557 17.6748 14.9827C17.5327 15.0097 17.3862 15.0034 17.2469 14.9643ZM16.5625 11.587C16.5618 11.2456 16.4497 10.9138 16.2431 10.6421C16.0365 10.3703 15.7467 10.1735 15.418 10.0815L10.3727 8.67137C10.2365 8.6334 10.1106 8.56512 10.0046 8.47163C9.89848 8.37814 9.81493 8.26187 9.76016 8.13153L8.4375 4.97684V6.8745C8.43738 7.01949 8.40363 7.16248 8.3389 7.29223C8.27417 7.42197 8.18023 7.53493 8.06446 7.62223C7.94869 7.70953 7.81425 7.76879 7.67171 7.79534C7.52917 7.8219 7.38241 7.81503 7.24297 7.77528L3.80547 6.79637C3.66256 6.75571 3.53137 6.68165 3.4227 6.58032C3.31403 6.47899 3.23101 6.35328 3.18047 6.21356L2.8125 5.19325V7.79012C2.81306 8.13116 2.9248 8.46272 3.13077 8.73453C3.33675 9.00635 3.62573 9.20359 3.95391 9.29637L16.5625 12.8261V11.587Z" fill="#475367"/>
</svg>
