<svg width="24" height="24" viewBox="0 0 24 24" fill="none" xmlns="http://www.w3.org/2000/svg">
<g clip-path="url(#clip0_190_10466)">
<path d="M12.9688 21.7674C14.3416 23.9994 16.4481 23.9994 17.0398 23.9994H23.9984L15.7854 13.9434C11.9747 14.1114 10.0102 16.5354 10.4362 17.5674L12.9688 21.7674Z" fill="url(#paint0_linear_190_10466)"/>
<path d="M10.5104 17.5451C10.5104 17.5451 10.25 17.0171 10.25 16.4171C10.25 14.0891 12.2855 12.7931 14.5814 12.2891L15.8595 13.9211C12.0488 14.0171 10.108 16.5131 10.5104 17.5451Z" fill="url(#paint1_linear_190_10466)"/>
<path d="M13.6564 10.0566C10.1771 10.0566 7.64453 10.6566 7.64453 12.0246C7.64453 12.5526 7.81021 12.9606 8.23625 13.7526L10.5321 17.6166C10.5321 17.6166 10.2718 17.0886 10.2718 16.4886C10.2718 14.1606 12.3073 12.8646 14.6031 12.3606C15.2895 12.1926 15.9522 12.1926 16.6386 12.1926C17.2303 12.1926 17.751 12.1926 18.1771 12.3606C17.822 11.3526 17.2303 10.0566 13.6564 10.0566Z" fill="url(#paint2_linear_190_10466)"/>
<path d="M4.59172 7.656C5.51479 9.216 5.86982 9.624 8.16568 9.624C9.86982 9.624 12.497 9.624 12.497 9.624L6.53254 1.968C5.18343 0.336 4.49704 0 3.21894 0H0L4.59172 7.656Z" fill="url(#paint3_linear_190_10466)"/>
</g>
<defs>
<linearGradient id="paint0_linear_190_10466" x1="17.1911" y1="13.6313" x2="17.1911" y2="29.1913" gradientUnits="userSpaceOnUse">
<stop stop-color="#ED1C24"/>
<stop offset="0.1263" stop-color="#E81B23"/>
<stop offset="0.2703" stop-color="#DB1A21"/>
<stop offset="0.4229" stop-color="#C4171D"/>
<stop offset="0.5816" stop-color="#A41317"/>
<stop offset="0.7436" stop-color="#7B0E10"/>
<stop offset="0.7546" stop-color="#780E0F"/>
</linearGradient>
<linearGradient id="paint1_linear_190_10466" x1="10.2594" y1="14.9258" x2="15.8584" y2="14.9258" gradientUnits="userSpaceOnUse">
<stop stop-color="#69231D"/>
<stop offset="0.2647" stop-color="#8D2922"/>
<stop offset="0.5812" stop-color="#B22F26"/>
<stop offset="0.8377" stop-color="#C93329"/>
<stop offset="1" stop-color="#D1342A"/>
</linearGradient>
<linearGradient id="paint2_linear_190_10466" x1="9.67485" y1="14.1525" x2="15.961" y2="10.4275" gradientUnits="userSpaceOnUse">
<stop offset="0.1" stop-color="#E7EBEE"/>
<stop offset="0.3511" stop-color="#D5DCE0"/>
<stop offset="0.8549" stop-color="#A5B4BB"/>
<stop offset="1" stop-color="#96A7B0"/>
</linearGradient>
<linearGradient id="paint3_linear_190_10466" x1="6.23529" y1="10.8951" x2="6.23529" y2="0.145128" gradientUnits="userSpaceOnUse">
<stop stop-color="#1C2F72"/>
<stop offset="0.1275" stop-color="#174687"/>
<stop offset="0.4038" stop-color="#0D72AF"/>
<stop offset="0.6512" stop-color="#0692CC"/>
<stop offset="0.8584" stop-color="#02A6DE"/>
<stop offset="1" stop-color="#00ADE4"/>
</linearGradient>
<clipPath id="clip0_190_10466">
<rect width="24" height="24" fill="white"/>
</clipPath>
</defs>
</svg>
