<svg width="18" height="18" viewBox="0 0 18 18" fill="none" xmlns="http://www.w3.org/2000/svg">
<g id="Bed">
<path id="Vector" d="M14.625 5.0625H1.6875V3.375C1.6875 3.22582 1.62824 3.08274 1.52275 2.97725C1.41726 2.87176 1.27418 2.8125 1.125 2.8125C0.975816 2.8125 0.832742 2.87176 0.727252 2.97725C0.621763 3.08274 0.5625 3.22582 0.5625 3.375V14.625C0.5625 14.7742 0.621763 14.9173 0.727252 15.0227C0.832742 15.1282 0.975816 15.1875 1.125 15.1875C1.27418 15.1875 1.41726 15.1282 1.52275 15.0227C1.62824 14.9173 1.6875 14.7742 1.6875 14.625V12.375H16.3125V14.625C16.3125 14.7742 16.3718 14.9173 16.4773 15.0227C16.5827 15.1282 16.7258 15.1875 16.875 15.1875C17.0242 15.1875 17.1673 15.1282 17.2727 15.0227C17.3782 14.9173 17.4375 14.7742 17.4375 14.625V7.875C17.4375 7.12908 17.1412 6.41371 16.6137 5.88626C16.0863 5.35882 15.3709 5.0625 14.625 5.0625ZM1.6875 6.1875H6.75V11.25H1.6875V6.1875Z" fill="#344054"/>
</g>
</svg>
