<svg width="28" height="28" viewBox="0 0 28 28" fill="none" xmlns="http://www.w3.org/2000/svg">
<path d="M23.625 12.6875H22.3125V5.03125C22.3125 4.68315 22.1742 4.34931 21.9281 4.10317C21.6819 3.85703 21.3481 3.71875 21 3.71875C20.6519 3.71875 20.3181 3.85703 20.0719 4.10317C19.8258 4.34931 19.6875 4.68315 19.6875 5.03125V12.6875H14.6409L8.03469 4.22406C7.86655 4.00862 7.63534 3.85103 7.37334 3.77329C7.11134 3.69556 6.83161 3.70154 6.57317 3.79042C6.31473 3.87929 6.09049 4.04662 5.93172 4.26906C5.77294 4.4915 5.68757 4.75796 5.6875 5.03125V12.6875H4.375C4.0269 12.6875 3.69306 12.8258 3.44692 13.0719C3.20078 13.3181 3.0625 13.6519 3.0625 14C3.0625 14.3481 3.20078 14.6819 3.44692 14.9281C3.69306 15.1742 4.0269 15.3125 4.375 15.3125H5.6875V22.9688C5.6875 23.3168 5.82578 23.6507 6.07192 23.8968C6.31806 24.143 6.6519 24.2812 7 24.2812C7.3481 24.2812 7.68194 24.143 7.92808 23.8968C8.17422 23.6507 8.3125 23.3168 8.3125 22.9688V15.3125H13.3591L19.9653 23.7759C20.1335 23.9914 20.3647 24.149 20.6267 24.2267C20.8887 24.3044 21.1684 24.2985 21.4268 24.2096C21.6853 24.1207 21.9095 23.9534 22.0683 23.7309C22.2271 23.5085 22.3124 23.242 22.3125 22.9688V15.3125H23.625C23.9731 15.3125 24.3069 15.1742 24.5531 14.9281C24.7992 14.6819 24.9375 14.3481 24.9375 14C24.9375 13.6519 24.7992 13.3181 24.5531 13.0719C24.3069 12.8258 23.9731 12.6875 23.625 12.6875ZM8.3125 12.6875V8.84625L11.3105 12.6875H8.3125ZM19.6875 19.1537L16.6895 15.3125H19.6875V19.1537Z" fill="#344054"/>
</svg>
