<svg width="14" height="14" viewBox="0 0 14 14" fill="none" xmlns="http://www.w3.org/2000/svg">
<g id="Dot">
<path id="Vector" d="M7.875 7C7.875 7.17306 7.82368 7.34223 7.72754 7.48612C7.63139 7.63002 7.49473 7.74217 7.33485 7.80839C7.17496 7.87462 6.99903 7.89195 6.8293 7.85819C6.65956 7.82443 6.50365 7.74109 6.38128 7.61872C6.25891 7.49635 6.17558 7.34044 6.14181 7.1707C6.10805 7.00097 6.12538 6.82504 6.19161 6.66515C6.25783 6.50527 6.36998 6.36861 6.51388 6.27246C6.65777 6.17632 6.82694 6.125 7 6.125C7.23206 6.125 7.45462 6.21719 7.61872 6.38128C7.78281 6.54538 7.875 6.76794 7.875 7Z" fill="#667185"/>
</g>
</svg>
