<svg width="20" height="20" viewBox="0 0 20 20" fill="none" xmlns="http://www.w3.org/2000/svg">
<path d="M16.8752 7.81217H10.3846L16.4893 6.20045C16.6089 6.1689 16.7211 6.114 16.8194 6.0389C16.9177 5.96379 17.0002 5.86998 17.062 5.76286C17.1239 5.65574 17.164 5.53744 17.1799 5.41477C17.1958 5.2921 17.1874 5.16748 17.1549 5.04811L16.5174 2.70436C16.4079 2.30954 16.1472 1.97378 15.7919 1.76979C15.4365 1.5658 15.0152 1.51001 14.619 1.61451L2.7182 4.75514C2.51993 4.8068 2.33394 4.89745 2.17109 5.02179C2.00825 5.14614 1.87181 5.30169 1.76976 5.47936C1.66751 5.65466 1.60136 5.84865 1.5752 6.0499C1.54904 6.25116 1.56339 6.45561 1.61742 6.65123L2.18773 8.74967V15.6247C2.18773 16.0391 2.35235 16.4365 2.64537 16.7295C2.9384 17.0225 3.33583 17.1872 3.75023 17.1872H16.2502C16.6646 17.1872 17.0621 17.0225 17.3551 16.7295C17.6481 16.4365 17.8127 16.0391 17.8127 15.6247V8.74967C17.8127 8.50103 17.714 8.26257 17.5381 8.08676C17.3623 7.91094 17.1239 7.81217 16.8752 7.81217ZM9.75726 4.83639L11.1862 5.66139L9.15882 6.19654L7.72992 5.37154L9.75726 4.83639ZM14.7924 3.50826L15.0979 4.62936L13.7596 4.98248L12.3307 4.1567L14.7924 3.50826ZM5.15648 6.05123L6.58538 6.87467L3.81976 7.60514L3.51585 6.48404L5.15648 6.05123ZM15.9377 15.3122H4.06273V9.68717H15.9377V15.3122Z" fill="#475367"/>
</svg>
