<svg width="20" height="20" viewBox="0 0 20 20" fill="none" xmlns="http://www.w3.org/2000/svg">
<path d="M5.3125 6.87532V3.12532C5.3125 2.87668 5.41127 2.63823 5.58709 2.46241C5.7629 2.28659 6.00136 2.18782 6.25 2.18782C6.49864 2.18782 6.7371 2.28659 6.91291 2.46241C7.08873 2.63823 7.1875 2.87668 7.1875 3.12532V6.87532C7.1875 7.12396 7.08873 7.36242 6.91291 7.53824C6.7371 7.71405 6.49864 7.81282 6.25 7.81282C6.00136 7.81282 5.7629 7.71405 5.58709 7.53824C5.41127 7.36242 5.3125 7.12396 5.3125 6.87532ZM17.1875 3.12532V17.5003C17.1875 17.749 17.0887 17.9874 16.9129 18.1632C16.7371 18.3391 16.4986 18.4378 16.25 18.4378C16.0014 18.4378 15.7629 18.3391 15.5871 18.1632C15.4113 17.9874 15.3125 17.749 15.3125 17.5003V14.0628H11.875C11.6264 14.0628 11.3879 13.9641 11.2121 13.7882C11.0363 13.6124 10.9375 13.374 10.9375 13.1253C10.9668 11.6035 11.1588 10.0891 11.5102 8.60813C12.2984 5.34563 13.8094 3.1511 15.8805 2.26595C16.0229 2.20486 16.1782 2.18004 16.3326 2.19369C16.487 2.20735 16.6356 2.25906 16.7651 2.3442C16.8945 2.42934 17.0009 2.54525 17.0746 2.68157C17.1484 2.81788 17.1871 2.97035 17.1875 3.12532ZM15.3125 4.91595C14.2656 6.01595 13.6719 7.65657 13.3414 9.01438C13.0941 10.0574 12.9316 11.1186 12.8555 12.1878H15.3125V4.91595ZM10 3.0472C9.97928 2.79856 9.86064 2.56833 9.67017 2.40717C9.4797 2.246 9.23302 2.1671 8.98438 2.18782C8.73573 2.20854 8.50551 2.32719 8.34434 2.51765C8.18318 2.70812 8.10428 2.95481 8.125 3.20345L8.4375 6.91126C8.4375 7.49142 8.20703 8.04782 7.7968 8.45806C7.38656 8.86829 6.83016 9.09876 6.25 9.09876C5.66984 9.09876 5.11344 8.86829 4.7032 8.45806C4.29297 8.04782 4.0625 7.49142 4.0625 6.91126L4.375 3.20345C4.38526 3.08033 4.37117 2.9564 4.33353 2.83873C4.2959 2.72107 4.23546 2.61196 4.15566 2.51765C4.07585 2.42334 3.97826 2.34567 3.86844 2.28908C3.75863 2.23249 3.63874 2.19808 3.51562 2.18782C3.39251 2.17756 3.26858 2.19165 3.15091 2.22929C3.03324 2.26692 2.92414 2.32737 2.82983 2.40717C2.73552 2.48697 2.65785 2.58456 2.60126 2.69438C2.54467 2.8042 2.51026 2.92408 2.5 3.0472L2.1875 6.7972C2.1875 6.82376 2.1875 6.84954 2.1875 6.87532C2.189 7.78931 2.49807 8.67619 3.06495 9.39314C3.63182 10.1101 4.4235 10.6154 5.3125 10.8277V17.5003C5.3125 17.749 5.41127 17.9874 5.58709 18.1632C5.7629 18.3391 6.00136 18.4378 6.25 18.4378C6.49864 18.4378 6.7371 18.3391 6.91291 18.1632C7.08873 17.9874 7.1875 17.749 7.1875 17.5003V10.8277C8.0765 10.6154 8.86818 10.1101 9.43505 9.39314C10.0019 8.67619 10.311 7.78931 10.3125 6.87532C10.3125 6.84954 10.3125 6.82376 10.3125 6.7972L10 3.0472Z" fill="#475367"/>
</svg>
