<svg width="82" height="72" viewBox="0 0 82 72" fill="none" xmlns="http://www.w3.org/2000/svg">
<g id="Group">
<g id="Group_2">
<path id="Vector" d="M28.3633 70.7464L33.5937 61.8262L31.7394 71.9993L28.3633 70.7464Z" fill="#FFBB33"/>
<path id="Vector_2" d="M57.304 1.45157L50.0703 13.4121L54.0085 0L57.304 1.45157Z" fill="#FFBB33"/>
<path id="Vector_3" d="M1.17659 25.2754L13.5062 31.4394L0 28.6798L1.17659 25.2754Z" fill="#FFBB33"/>
<path id="Vector_4" d="M77.3506 50.4698L66.4453 44.2285L78.6731 47.1199L77.3506 50.4698Z" fill="#FFBB33"/>
<path id="Vector_5" d="M59.398 68.8072L54.6641 58.1191L62.4262 66.8588L59.398 68.8072Z" fill="#FFBB33"/>
<path id="Vector_6" d="M21.87 3.5957L25.9763 14.7407L18.7188 5.3384L21.87 3.5957Z" fill="#FFBB33"/>
<path id="Vector_7" d="M81.6883 28.1121L68.8672 32.9882L79.9772 24.9434L81.6883 28.1121Z" fill="#FFBB33"/>
<path id="Vector_8" d="M6.19531 50.2379L16.0044 47.8848L7.6479 53.5334L6.19531 50.2379Z" fill="#FFBB33"/>
</g>
<g id="Group_3">
<path id="Vector_9" d="M64.9143 36.6627C64.9143 48.7248 53.98 58.5028 40.4923 58.5028C27.0045 58.5028 16.0703 48.7248 16.0703 36.6627C16.0703 24.6004 27.0045 14.8223 40.4923 14.8223C53.9797 14.8223 64.9143 24.6004 64.9143 36.6627Z" fill="#FFED4A"/>
<path id="Vector_10" d="M33.0258 34.2553C32.6405 34.2553 32.2469 34.1841 31.8441 34.0412C30.7916 33.6681 30.0937 32.9967 29.77 32.0454C28.8311 29.2824 31.5019 25.1082 31.6166 24.9314L32.3726 25.4209C32.347 25.4605 29.8228 29.4065 30.6228 31.7566C30.8568 32.4427 31.3543 32.9123 32.1447 33.1927C32.8772 33.4516 33.5401 33.3998 34.1714 33.0327C36.5868 31.6268 37.5627 26.2771 37.5725 26.223L38.4586 26.3803C38.4162 26.6169 37.4 32.194 34.6249 33.8103C34.116 34.1064 33.5808 34.2553 33.0258 34.2553Z" fill="#0E1535"/>
<path id="Vector_11" d="M44.0687 37.5935C43.6835 37.5935 43.2895 37.5222 42.8871 37.3793C41.8346 37.0062 41.1363 36.3349 40.813 35.3835C39.874 32.6205 42.5449 28.4464 42.6595 28.2695L43.4156 28.759C43.39 28.7987 40.8657 32.7446 41.6658 35.0947C41.8998 35.7809 42.3973 36.2505 43.188 36.5308C43.9202 36.7904 44.5834 36.7383 45.2148 36.3708C47.6301 34.965 48.606 29.6152 48.6158 29.5611L49.5022 29.7184C49.4599 29.9551 48.4436 35.5321 45.6686 37.1484C45.1589 37.4449 44.6234 37.5935 44.0687 37.5935Z" fill="#0E1535"/>
<path id="Vector_12" d="M44.1674 45.6957L47.9093 43.5036C48.3288 41.5562 48.5531 40.0703 48.5531 40.0703L37.0938 41.8893C37.0938 41.8893 40.5976 52.7294 43.6416 52.5949C45.2946 52.522 46.6003 48.8339 47.4488 45.4792L44.1674 45.6957Z" fill="#FFF2E3"/>
</g>
</g>
</svg>
