<svg width="18" height="18" viewBox="0 0 18 18" fill="none" xmlns="http://www.w3.org/2000/svg">
<g id="MapPin">
<path id="Vector" d="M9 4.21875C8.38811 4.21875 7.78997 4.4002 7.2812 4.74014C6.77244 5.08009 6.37591 5.56326 6.14175 6.12857C5.90759 6.69388 5.84632 7.31593 5.9657 7.91606C6.08507 8.51619 6.37972 9.06744 6.81239 9.50011C7.24506 9.93278 7.79631 10.2274 8.39644 10.3468C8.99657 10.4662 9.61862 10.4049 10.1839 10.1708C10.7492 9.93659 11.2324 9.54006 11.5724 9.03129C11.9123 8.52253 12.0938 7.92439 12.0938 7.3125C12.0928 6.49227 11.7666 5.7059 11.1866 5.12592C10.6066 4.54593 9.82023 4.21968 9 4.21875ZM9 8.71875C8.72187 8.71875 8.44999 8.63627 8.21873 8.48175C7.98747 8.32723 7.80723 8.10761 7.70079 7.85065C7.59436 7.59369 7.56651 7.31094 7.62077 7.03815C7.67503 6.76537 7.80896 6.5148 8.00563 6.31813C8.2023 6.12146 8.45287 5.98753 8.72565 5.93327C8.99844 5.87901 9.28119 5.90686 9.53815 6.01329C9.79511 6.11973 10.0147 6.29997 10.1693 6.53123C10.3238 6.76249 10.4062 7.03437 10.4062 7.3125C10.4062 7.68546 10.2581 8.04315 9.99437 8.30687C9.73065 8.57059 9.37296 8.71875 9 8.71875ZM9 0.84375C7.28495 0.845611 5.64068 1.52774 4.42796 2.74046C3.21524 3.95318 2.53311 5.59745 2.53125 7.3125C2.53125 12.7519 8.27156 16.8328 8.51625 17.0037C8.65805 17.1029 8.82693 17.1561 9 17.1561C9.17307 17.1561 9.34195 17.1029 9.48375 17.0037C10.571 16.2024 11.5657 15.2827 12.4495 14.2615C14.4246 11.9932 15.4688 9.58852 15.4688 7.3125C15.4669 5.59745 14.7848 3.95318 13.572 2.74046C12.3593 1.52774 10.715 0.845611 9 0.84375ZM11.2008 13.128C10.5304 13.8981 9.79398 14.6082 9 15.2501C8.20602 14.6082 7.46962 13.8981 6.79922 13.128C5.625 11.7682 4.21875 9.65461 4.21875 7.3125C4.21875 6.04443 4.72249 4.8283 5.61915 3.93165C6.5158 3.03499 7.73193 2.53125 9 2.53125C10.2681 2.53125 11.4842 3.03499 12.3809 3.93165C13.2775 4.8283 13.7812 6.04443 13.7812 7.3125C13.7812 9.65461 12.375 11.7682 11.2008 13.128Z" fill="#0D6EFD"/>
</g>
</svg>
