<svg width="200" height="200" viewBox="0 0 200 200" fill="none" xmlns="http://www.w3.org/2000/svg">
<g id="fi_8636010">
<g id="Group">
<g id="Group_2">
<path id="Vector" d="M123.867 34.8437C121.172 34.8437 118.945 32.6172 118.945 29.9219C118.945 29.0625 118.242 28.3594 117.383 28.3594C116.523 28.3594 115.82 29.0625 115.82 29.9219C115.82 32.6172 113.594 34.8437 110.898 34.8437C110.039 34.8437 109.336 35.5469 109.336 36.4062C109.336 37.2656 110.039 37.9687 110.898 37.9687C113.594 37.9687 115.82 40.1953 115.82 42.8906C115.82 43.75 116.523 44.4531 117.383 44.4531C118.242 44.4531 118.945 43.75 118.945 42.8906C118.945 40.1953 121.172 37.9687 123.867 37.9687C124.727 37.9687 125.43 37.2656 125.43 36.4062C125.43 35.5469 124.727 34.8437 123.867 34.8437Z" fill="#FFD837"/>
</g>
<g id="Group_3">
<path id="Vector_2" d="M31.0547 95.0781C34.5065 95.0781 37.3047 92.2799 37.3047 88.8281C37.3047 85.3763 34.5065 82.5781 31.0547 82.5781C27.6029 82.5781 24.8047 85.3763 24.8047 88.8281C24.8047 92.2799 27.6029 95.0781 31.0547 95.0781Z" fill="#8400B2"/>
</g>
<g id="Group_4">
<path id="Vector_3" d="M62.539 178.594L51.4452 181.094C51.328 181.094 51.2109 181.133 51.0937 181.133C50.8202 181.133 50.5077 181.055 50.2734 180.898C49.9218 180.664 49.6874 180.313 49.5702 179.922L47.1484 169.141C45.4296 166.641 38.9452 157.109 38.789 153.477C38.7109 151.68 39.3749 148.477 40.078 145.469C40.8202 142.344 41.6796 139.453 41.8359 138.906C41.953 138.516 42.2265 138.164 42.5781 137.969L43.3593 137.539C44.9999 136.641 46.8749 136.445 48.6327 136.992C50.3906 137.5 51.8359 138.633 52.7343 140.234L61.2109 152.539C61.289 152.656 61.3671 152.813 61.4062 152.969C61.9921 154.844 63.8671 161.211 63.164 163.594C62.7734 164.844 62.2265 165.703 61.6796 166.328C61.6015 166.445 61.4843 166.563 61.3671 166.641L63.6718 176.797C63.9452 177.578 63.3984 178.398 62.539 178.594Z" fill="#FFA98A"/>
</g>
<g id="Group_5">
<path id="Vector_4" d="M63.2031 163.516C62.8125 164.766 62.2656 165.625 61.7188 166.25C52.8906 162.266 43.3203 150.195 40.0781 145.43C40.8203 142.305 41.6797 139.414 41.8359 138.867C41.9531 138.477 42.2266 138.125 42.5781 137.93L43.3594 137.5C45 136.602 46.875 136.406 48.6328 136.953C50.3906 137.461 51.8359 138.594 52.7344 140.195L61.2109 152.5C61.2891 152.617 61.3672 152.773 61.4062 152.93C62.0312 154.805 63.9063 161.133 63.2031 163.516Z" fill="#D6785B"/>
</g>
<g id="Group_6">
<path id="Vector_5" d="M51.0546 177.774L50.8593 177.813C49.9609 178.008 49.1015 177.461 48.9062 176.563L46.9531 167.539C46.7577 166.641 47.3046 165.781 48.2031 165.586L48.3984 165.547C49.2968 165.352 50.1562 165.899 50.3515 166.797L52.3046 175.821C52.4999 176.719 51.9531 177.578 51.0546 177.774Z" fill="#FFD3C5"/>
</g>
<g id="Group_7">
<path id="Vector_6" d="M46.3282 160.703L46.1719 160.859C45.4688 161.445 44.4532 161.367 43.8672 160.664L41.4063 156.719C40.8204 156.016 40.8985 155 41.6016 154.414L41.7579 154.258C42.461 153.672 43.4766 153.75 44.0626 154.453L46.5235 158.399C47.0704 159.102 46.9922 160.117 46.3282 160.703Z" fill="#FFD3C5"/>
</g>
<g id="Group_8">
<path id="Vector_7" d="M51.1329 181.133C50.8204 181.133 50.547 181.055 50.3126 180.899C49.961 180.664 49.7267 180.313 49.6095 179.922L48.672 175.82C48.4767 174.961 49.0235 174.141 49.8438 173.945C50.6642 173.75 51.5235 174.297 51.7188 175.117L52.3048 177.695L60.3517 175.899L58.2032 166.328C58.047 165.664 58.3595 164.961 58.9845 164.61C58.9845 164.61 59.8048 164.102 60.2345 162.656C60.5079 161.68 59.6095 157.5 58.5548 154.063L50.1563 141.914C50.1173 141.875 50.0782 141.836 50.0782 141.758C49.6095 140.86 48.7892 140.195 47.8126 139.922C46.836 139.649 45.8204 139.766 44.922 140.235L44.7267 140.352C43.7892 143.633 41.8751 150.86 41.9923 153.32C42.0704 155.391 46.6798 162.891 49.961 167.578C50.0782 167.735 50.1563 167.93 50.1954 168.125L50.547 169.61C50.7423 170.469 50.1954 171.289 49.3751 171.485C48.5548 171.68 47.6954 171.133 47.5001 170.313L47.2267 169.102C45.5079 166.602 39.0235 157.07 38.8673 153.438C38.7501 149.805 41.6017 139.961 41.9142 138.867C42.0313 138.477 42.3048 138.125 42.6563 137.93L43.4376 137.5C45.0782 136.602 46.9532 136.406 48.711 136.914C50.4688 137.422 51.9142 138.594 52.8126 140.156L61.3282 152.461C61.4063 152.578 61.4845 152.735 61.5235 152.891C62.1095 154.766 63.9845 161.133 63.2813 163.516C62.8517 165 62.1095 165.938 61.5235 166.563L63.8282 176.719C63.9063 177.11 63.8282 177.539 63.6329 177.891C63.3985 178.242 63.047 178.477 62.6563 178.594L51.5626 181.094C51.3282 181.094 51.2501 181.133 51.1329 181.133Z" fill="black"/>
</g>
<g id="Group_9">
<path id="Vector_8" d="M158.047 155.938L147.109 159.063C146.953 159.102 146.836 159.141 146.68 159.141C145.977 159.141 145.352 158.672 145.195 158.008L142.344 148.008C142.227 147.969 142.109 147.93 142.031 147.891C141.875 147.852 141.719 147.773 141.562 147.695C140.898 147.422 140.117 146.914 139.375 146.172C137.617 144.414 136.211 137.93 135.82 136.016C135.781 135.859 135.781 135.703 135.82 135.547L136.133 132.734L137.383 120.664C137.422 116.875 140.508 113.828 144.336 113.828H145.195C145.625 113.828 146.016 113.984 146.289 114.297C146.562 114.57 147.578 115.586 148.828 116.953C151.328 119.57 154.844 123.516 155.938 125.664C157.5 128.789 156.523 139.492 156.172 143.008C156.172 143.164 156.172 143.281 156.133 143.398L158.867 153.086L159.141 154.062C159.336 154.844 158.867 155.703 158.047 155.938Z" fill="#FFA98A"/>
</g>
<g id="Group_10">
<path id="Vector_9" d="M158.828 153.047C158.672 153.594 158.281 154.063 157.695 154.219L157.461 154.297C156.601 154.531 155.664 154.023 155.43 153.164L152.89 144.297C152.656 143.438 153.125 142.539 154.023 142.266L154.219 142.188C154.961 141.953 155.703 142.305 156.094 142.93C156.094 143.086 156.094 143.203 156.055 143.32L158.828 153.047Z" fill="#FFD3C5"/>
</g>
<g id="Group_11">
<path id="Vector_10" d="M153.438 136.406H153.203C152.305 136.445 151.523 135.781 151.484 134.883L151.875 130.274C151.836 129.375 152.5 128.594 153.398 128.555H153.633C154.531 128.516 155.313 129.18 155.352 130.078L154.961 134.688C155.039 135.586 154.336 136.367 153.438 136.406Z" fill="#FFD3C5"/>
</g>
<g id="Group_12">
<path id="Vector_11" d="M146.68 135.703C145.273 139.961 144.023 144.492 141.992 147.891C141.836 147.852 141.68 147.773 141.523 147.695C140.859 147.422 140.078 146.914 139.336 146.172C137.578 144.414 136.172 137.93 135.781 136.016C135.742 135.859 135.742 135.703 135.781 135.547L136.094 132.734L137.344 120.664C137.383 116.875 140.469 113.828 144.297 113.828H145.156C145.586 113.828 145.977 113.984 146.25 114.297C146.523 114.57 147.539 115.586 148.789 116.953L145.117 116.992C145.117 116.953 151.367 121.641 146.68 135.703Z" fill="#D6785B"/>
</g>
<g id="Group_13">
<path id="Vector_12" d="M104.492 69.2969V57.5781C104.492 56.7188 103.789 56.0156 102.93 56.0156H73.6719C65.6641 56.0156 59.1797 62.5391 59.1797 70.5078V99.7656C59.1797 100.625 59.8828 101.328 60.7422 101.328H74.1797C74.9219 101.328 75.5469 100.82 75.7031 100.078C76.2891 97.1875 78.8672 95.0781 81.8359 95.0781C84.8047 95.0781 87.3828 97.1875 87.9687 100.078C88.125 100.82 88.75 101.328 89.4922 101.328H102.93C103.789 101.328 104.492 100.625 104.492 99.7656V88.0469C109.648 88.0469 113.867 83.8281 113.867 78.6719C113.867 73.5156 109.648 69.2969 104.492 69.2969Z" fill="#FFD605"/>
</g>
<g id="Group_14">
<path id="Vector_13" d="M146.68 159.141C146.016 159.141 145.391 158.711 145.195 158.008L142.344 148.008C141.523 147.773 140.43 147.266 139.336 146.172C137.578 144.414 136.172 137.93 135.781 136.016C135.742 135.859 135.742 135.703 135.742 135.547L137.305 120.703C137.344 116.914 140.43 113.867 144.258 113.867H145.117C145.547 113.867 145.937 114.023 146.211 114.336C147.031 115.156 154.258 122.422 155.859 125.664C157.461 128.906 156.367 140.391 156.055 143.398L156.641 145.391C156.875 146.211 156.406 147.07 155.586 147.305C154.766 147.539 153.906 147.07 153.672 146.25L153.008 143.984C152.969 143.789 152.93 143.594 152.969 143.398C153.594 137.734 154.062 128.945 153.125 127.07C152.031 124.844 146.875 119.414 144.492 116.992H144.258C142.148 116.992 140.43 118.711 140.43 120.82V120.977L138.906 135.664C139.609 139.18 140.82 143.281 141.562 144.023C142.617 145.078 143.594 145.117 143.633 145.117C144.297 145.156 144.922 145.625 145.117 146.25L147.812 155.703L155.742 153.437L154.883 150.391C154.844 150.234 154.805 150.117 154.805 149.961C154.805 149.102 155.508 148.398 156.367 148.398C157.109 148.398 157.734 148.945 157.891 149.648L159.141 154.102C159.375 154.922 158.906 155.781 158.047 156.016L147.109 159.141C146.953 159.102 146.836 159.141 146.68 159.141Z" fill="black"/>
</g>
<g id="Group_15">
<path id="Vector_14" d="M91.2109 66.9531H84.9609C81.9531 66.9531 79.4922 64.4922 79.4922 61.4844C79.4922 58.4766 81.9531 56.0156 84.9609 56.0156H91.2109C94.2188 56.0156 96.6797 58.4766 96.6797 61.4844C96.6797 64.4922 94.2188 66.9531 91.2109 66.9531Z" fill="#FFF5CC"/>
</g>
<g id="Group_16">
<path id="Vector_15" d="M59.1797 89.6094V73.9844C59.1797 70.9766 61.6406 68.5156 64.6484 68.5156C67.6562 68.5156 70.1172 70.9766 70.1172 73.9844V89.6094C70.1172 92.6172 67.6562 95.0781 64.6484 95.0781C61.6406 95.0781 59.1797 92.6172 59.1797 89.6094Z" fill="#FFF5CC"/>
</g>
<g id="Group_17">
<path id="Vector_16" d="M146.68 99.7656V128.984C146.68 136.992 140.156 143.516 132.148 143.516H102.93C102.07 143.516 101.367 142.812 101.367 141.953V130.234C100.078 130.234 98.789 129.961 97.6562 129.453C96.328 128.906 95.1171 128.008 94.1796 126.875C92.3827 124.727 91.6796 121.875 92.1483 119.102C92.8124 115.508 95.703 112.539 99.2968 111.719C99.9999 111.563 100.703 111.484 101.367 111.484V99.7656C101.367 98.9062 102.07 98.2031 102.93 98.2031H116.367C116.836 98.2031 117.305 98.4375 117.578 98.7891C117.891 99.1797 117.969 99.6484 117.891 100.117C117.812 100.508 117.773 100.898 117.773 101.367C117.773 104.805 120.586 107.617 124.023 107.617C127.461 107.617 130.273 104.805 130.273 101.367C130.273 100.898 130.234 100.508 130.156 100.117C130.078 99.6484 130.156 99.1797 130.469 98.7891C130.781 98.4375 131.211 98.2031 131.68 98.2031H145.117C145.976 98.2031 146.68 98.9062 146.68 99.7656Z" fill="#98BE36"/>
</g>
<g id="Group_18">
<path id="Vector_17" d="M146.68 70.5469V129.023C146.68 136.992 140.156 143.555 132.148 143.555H102.93C102.07 143.555 101.367 142.852 101.367 141.992V130.273C100.078 130.273 98.7891 130 97.6562 129.492H122.031C128.75 129.492 134.219 124.023 134.219 117.305V56.1719C141.211 57.1484 146.68 63.2031 146.68 70.5469Z" fill="#46993E"/>
</g>
<g id="Group_19">
<path id="Vector_18" d="M91.0155 148.086L87.6952 135.078C87.578 134.609 87.2655 134.258 86.8358 134.023C86.4061 133.828 85.8983 133.828 85.4686 134.062C85.1171 134.219 84.7264 134.375 84.2968 134.492C80.9764 135.352 77.5389 133.32 76.6796 129.961C75.8202 126.641 77.8514 123.203 81.1718 122.344C81.6014 122.227 82.0311 122.187 82.3827 122.148C82.8514 122.148 83.2811 121.914 83.5936 121.523C83.8671 121.133 83.9843 120.664 83.8671 120.195L80.5468 107.187C80.4296 106.797 80.1952 106.445 79.8436 106.211C79.4921 106.016 79.0624 105.937 78.6718 106.055L66.7968 109.102C64.6093 105.859 60.5468 104.258 56.6796 105.234C52.8124 106.211 49.9999 109.57 49.6483 113.477L37.7733 116.523C37.3827 116.641 37.0311 116.875 36.7968 117.227C36.6014 117.578 36.5233 118.008 36.6405 118.398L43.8671 146.719C44.8046 150.469 47.1874 153.633 50.5077 155.625C52.7733 156.992 55.3124 157.656 57.8905 157.656C59.1014 157.656 60.3124 157.5 61.4843 157.187L89.8046 149.961C90.1952 149.844 90.5468 149.609 90.7811 149.258C91.0546 148.945 91.1327 148.516 91.0155 148.086Z" fill="#12ACD7"/>
</g>
<g id="Group_20">
<path id="Vector_19" d="M90.8593 149.297C90.664 149.648 90.3124 149.922 89.9218 150L61.6014 157.227C60.3905 157.539 59.1796 157.695 57.9686 157.695C55.3905 157.695 52.8514 156.992 50.5858 155.664C47.2655 153.711 44.8827 150.547 43.9452 146.758L36.7186 118.438C36.6014 118.047 36.6796 117.617 36.8749 117.266C37.0702 116.914 37.4218 116.641 37.8124 116.562L45.5468 114.609L50.1561 132.734C51.1327 136.484 53.4764 139.648 56.7968 141.641C59.0624 143.008 61.6014 143.672 64.1796 143.672C65.3905 143.672 66.6014 143.516 67.8124 143.203L88.4374 137.93L91.0155 148.125C91.1327 148.516 91.0546 148.906 90.8593 149.297Z" fill="#3183A3"/>
</g>
<g id="Group_21">
<path id="Vector_20" d="M146.68 70.5469V99.7656C146.68 100.625 145.977 101.328 145.117 101.328H133.398C133.398 106.484 129.18 110.703 124.023 110.703C118.867 110.703 114.648 106.484 114.648 101.328H102.93C102.07 101.328 101.367 100.625 101.367 99.7656V86.3281C101.367 85.8594 101.602 85.3906 101.953 85.1172C102.344 84.8047 102.812 84.7266 103.281 84.8047C103.672 84.8828 104.063 84.9219 104.531 84.9219C107.969 84.9219 110.781 82.1094 110.781 78.6719C110.781 75.2344 107.969 72.4219 104.531 72.4219C104.063 72.4219 103.672 72.4609 103.281 72.5391C102.812 72.6172 102.344 72.5391 101.953 72.2266C101.602 71.9141 101.367 71.4844 101.367 71.0156V57.5781C101.367 56.7188 102.07 56.0156 102.93 56.0156H132.148C132.852 56.0156 133.516 56.0547 134.18 56.1719C141.211 57.1484 146.68 63.2031 146.68 70.5469Z" fill="#FF4D0F"/>
</g>
<g id="Group_22">
<path id="Vector_21" d="M146.68 70.5469V99.7656C146.68 100.625 145.977 101.328 145.117 101.328H134.18V56.1719C141.211 57.1484 146.68 63.2031 146.68 70.5469Z" fill="#CC2A00"/>
</g>
<g id="Group_23">
<path id="Vector_22" d="M60.7422 77.8906C59.8828 77.8906 59.1797 77.1875 59.1797 76.3281V70.5469C59.1797 62.5391 65.7031 56.0156 73.7109 56.0156H84.5703C85.4297 56.0156 86.1328 56.7188 86.1328 57.5781C86.1328 58.4375 85.4297 59.1406 84.5703 59.1406H73.7109C67.4219 59.1406 62.3047 64.2578 62.3047 70.5469V76.3281C62.3047 77.1875 61.6016 77.8906 60.7422 77.8906Z" fill="black"/>
</g>
<g id="Group_24">
<path id="Vector_23" d="M102.93 101.328H89.4922C88.75 101.328 88.125 100.82 87.9687 100.078C87.3828 97.1875 84.8047 95.0781 81.8359 95.0781C78.8672 95.0781 76.2891 97.1875 75.7031 100.078C75.5469 100.82 74.9219 101.328 74.1797 101.328H60.7422C59.8828 101.328 59.1797 100.625 59.1797 99.7656V85.9375C59.1797 85.0781 59.8828 84.375 60.7422 84.375C61.6016 84.375 62.3047 85.0781 62.3047 85.9375V98.2031H73.0078C74.2969 94.5312 77.8516 91.9531 81.8359 91.9531C85.8594 91.9531 89.375 94.5312 90.6641 98.2031H101.367V86.3281C101.367 85.8594 101.562 85.4297 101.914 85.1172C102.266 84.8047 102.734 84.6875 103.203 84.7656C103.672 84.8438 104.102 84.8828 104.492 84.8828C107.93 84.8828 110.742 82.0703 110.742 78.6328C110.742 75.1953 107.93 72.3828 104.492 72.3828C104.102 72.3828 103.672 72.4219 103.203 72.5C102.734 72.5781 102.266 72.4609 101.914 72.1484C101.562 71.8359 101.367 71.4063 101.367 70.9375V59.0625H92.6953C91.8359 59.0625 91.1328 58.3594 91.1328 57.5C91.1328 56.6406 91.8359 55.9375 92.6953 55.9375H102.93C103.789 55.9375 104.492 56.6406 104.492 57.5V69.2188C109.648 69.2188 113.867 73.4375 113.867 78.5938C113.867 83.75 109.648 87.9688 104.492 87.9688V99.6875C104.492 100.625 103.789 101.328 102.93 101.328Z" fill="black"/>
</g>
<g id="Group_25">
<path id="Vector_24" d="M125.586 66.9531H111.523C108.516 66.9531 106.055 64.4922 106.055 61.4844C106.055 58.4766 108.516 56.0156 111.523 56.0156H125.586C128.594 56.0156 131.055 58.4766 131.055 61.4844C131.055 64.4922 128.594 66.9531 125.586 66.9531Z" fill="#FFCCC7"/>
</g>
<g id="Group_26">
<path id="Vector_25" d="M124.023 110.703C118.867 110.703 114.648 106.484 114.648 101.328H102.93C102.07 101.328 101.367 100.625 101.367 99.7656V86.3281C101.367 85.8594 101.602 85.3906 101.953 85.1172C102.305 84.8047 102.812 84.6875 103.281 84.8047C103.633 84.8828 104.062 84.9219 104.492 84.9219C107.93 84.9219 110.742 82.1094 110.742 78.6719C110.742 75.2344 107.93 72.4219 104.492 72.4219C104.023 72.4219 103.633 72.4609 103.281 72.5391C102.812 72.6563 102.344 72.5391 101.953 72.2266C101.602 71.9141 101.367 71.4844 101.367 71.0156V57.5781C101.367 56.7188 102.07 56.0156 102.93 56.0156H114.844C115.703 56.0156 116.406 56.7188 116.406 57.5781C116.406 58.4375 115.703 59.1406 114.844 59.1406H104.492V69.2969C109.648 69.2969 113.867 73.5156 113.867 78.6719C113.867 83.8281 109.648 88.0469 104.492 88.0469V98.2031H116.367C116.836 98.2031 117.266 98.3984 117.578 98.75C117.891 99.1016 118.008 99.5703 117.93 100.039C117.852 100.508 117.813 100.938 117.813 101.328C117.813 104.766 120.625 107.578 124.063 107.578C127.5 107.578 130.313 104.766 130.313 101.328C130.313 100.938 130.273 100.508 130.195 100.039C130.117 99.5703 130.234 99.1016 130.547 98.75C130.859 98.3984 131.289 98.2031 131.758 98.2031H143.633V70.5469C143.633 64.2578 138.516 59.1406 132.227 59.1406H123.75C122.891 59.1406 122.187 58.4375 122.187 57.5781C122.187 56.7188 122.891 56.0156 123.75 56.0156H132.227C140.234 56.0156 146.758 62.5391 146.758 70.5469V99.7656C146.758 100.625 146.055 101.328 145.195 101.328H133.477C133.398 106.484 129.18 110.703 124.023 110.703Z" fill="black"/>
</g>
<g id="Group_27">
<path id="Vector_26" d="M57.9686 157.695C51.4843 157.695 45.5858 153.32 43.9061 146.758L36.6796 118.398C36.5624 118.008 36.6405 117.578 36.8358 117.227C37.0311 116.875 37.3827 116.602 37.7733 116.523L49.6483 113.516C49.9999 109.609 52.7733 106.25 56.6796 105.273C60.5468 104.297 64.6093 105.898 66.7968 109.141L78.6718 106.094C79.4921 105.898 80.3514 106.367 80.5858 107.227L81.2108 109.727C81.4061 110.547 80.9374 111.406 80.078 111.641C79.2577 111.875 78.3983 111.367 78.1639 110.508L77.9296 109.531L66.4061 112.461C65.703 112.656 64.9218 112.305 64.6093 111.641C63.3202 108.984 60.3124 107.578 57.4608 108.32C54.5702 109.062 52.6171 111.719 52.7733 114.687C52.8124 115.43 52.3046 116.094 51.6014 116.289L40.1171 119.219L46.953 146.055C48.5155 152.148 54.7264 155.82 60.8202 154.258L87.6171 147.422L85.1171 137.578C85.1171 137.578 85.1171 137.578 85.078 137.578C82.6952 138.203 80.1561 137.852 78.0077 136.562C75.8593 135.273 74.2968 133.242 73.7108 130.82C72.4218 125.82 75.4686 120.703 80.4686 119.414L79.453 115.469C79.2577 114.648 79.7655 113.789 80.5858 113.555C81.4061 113.359 82.2655 113.867 82.4999 114.687L83.9061 120.312C84.0233 120.781 83.9061 121.25 83.6327 121.641C83.3593 122.031 82.8905 122.266 82.4218 122.266C82.0702 122.266 81.6796 122.344 81.2108 122.461C77.8905 123.32 75.8593 126.719 76.7186 130.039C77.1483 131.68 78.1639 133.008 79.6093 133.867C81.0546 134.727 82.7343 134.961 84.3358 134.531C84.8046 134.414 85.1952 134.297 85.5077 134.102C85.9374 133.906 86.4452 133.867 86.8749 134.062C87.3046 134.258 87.6171 134.648 87.7343 135.117L91.0546 148.125C91.2499 148.945 90.7811 149.805 89.9218 150.039L61.6014 157.266C60.3514 157.539 59.1796 157.695 57.9686 157.695Z" fill="black"/>
</g>
<g id="Group_28">
<path id="Vector_27" d="M55.6641 149.531L56.211 145.703C56.3672 144.57 55.9376 143.477 55.0782 142.773C54.1797 142.07 53.0079 141.875 51.9532 142.266C51.0547 142.578 50.1954 143.086 49.3751 143.672C46.5235 145.82 46.7188 154.531 46.9532 158.164C46.9922 159.023 47.7735 159.688 48.5938 159.649C49.1797 159.609 49.6485 159.258 49.8829 158.789L53.3594 160.508C52.9688 161.289 53.2813 162.227 54.0626 162.617C54.2969 162.734 54.5313 162.774 54.7657 162.774C55.3516 162.774 55.8985 162.461 56.1719 161.914C58.9844 156.016 56.6407 151.172 55.6641 149.531Z" fill="#FFA98A"/>
</g>
<g id="Group_29">
<path id="Vector_28" d="M132.148 143.516H102.93C102.07 143.516 101.367 142.812 101.367 141.953V130.234C96.3281 130.234 92.2265 126.289 91.9921 121.25C91.9531 120.391 92.6171 119.648 93.4765 119.609C94.2968 119.57 95.0781 120.234 95.1171 121.094C95.2734 124.453 98.0077 127.07 101.367 127.07C101.758 127.07 102.187 127.031 102.656 126.953C103.125 126.875 103.594 126.992 103.945 127.305C104.297 127.617 104.492 128.047 104.492 128.516V140.391H132.148C138.437 140.391 143.555 135.273 143.555 128.984V101.328H133.398C133.398 106.484 129.18 110.703 124.023 110.703C118.867 110.703 114.648 106.484 114.648 101.328H104.492V113.203C104.492 113.672 104.297 114.102 103.906 114.414C103.555 114.727 103.086 114.844 102.617 114.727C101.719 114.57 100.82 114.57 99.9609 114.766C98.9843 115 98.0468 115.469 97.2656 116.133C96.6015 116.68 95.6249 116.602 95.0781 115.977C94.5312 115.312 94.6093 114.336 95.2343 113.789C96.4062 112.812 97.8124 112.07 99.2968 111.719C99.9999 111.563 100.703 111.484 101.367 111.484V99.7656C101.367 98.9062 102.07 98.2031 102.93 98.2031H116.367C116.836 98.2031 117.305 98.3984 117.578 98.7891C117.891 99.1406 118.008 99.6484 117.891 100.117C117.812 100.469 117.773 100.898 117.773 101.367C117.773 104.805 120.586 107.617 124.023 107.617C127.461 107.617 130.273 104.805 130.273 101.367C130.273 100.898 130.234 100.508 130.156 100.117C130.039 99.6484 130.156 99.1797 130.469 98.7891C130.781 98.4375 131.211 98.2031 131.68 98.2031H145.117C145.976 98.2031 146.68 98.9062 146.68 99.7656V128.984C146.68 136.992 140.156 143.516 132.148 143.516Z" fill="black"/>
</g>
<g id="Group_30">
<path id="Vector_29" d="M151.094 131.719C149.063 128.672 143.984 121.641 140.43 121.641C139.414 121.641 138.438 121.797 137.5 122.07C136.406 122.422 135.586 123.281 135.313 124.375C135.039 125.469 135.352 126.602 136.172 127.383L138.906 130.117C139.102 131.992 140.156 137.305 145.977 140.195C146.211 140.312 146.445 140.352 146.68 140.352C147.266 140.352 147.813 140.039 148.086 139.492C148.477 138.711 148.164 137.773 147.383 137.383L149.141 133.906C149.609 134.141 150.195 134.141 150.703 133.828C151.406 133.398 151.602 132.422 151.094 131.719Z" fill="#FFA98A"/>
</g>
<g id="Group_31">
<path id="Vector_30" d="M146.68 140.391C146.445 140.391 146.211 140.352 145.977 140.234C140.156 137.305 139.102 132.031 138.906 130.156L136.172 127.422C135.391 126.641 135.039 125.508 135.313 124.414C135.586 123.32 136.406 122.461 137.5 122.109C138.399 121.836 139.414 121.68 140.43 121.68C144.024 121.68 149.102 128.711 151.094 131.758C151.563 132.461 151.367 133.437 150.664 133.906C149.961 134.375 148.984 134.18 148.516 133.477C145.469 128.945 141.641 124.805 140.43 124.805C139.727 124.805 139.063 124.883 138.438 125.078L141.524 128.359C141.797 128.633 141.992 129.062 141.992 129.453C141.992 129.648 142.109 134.805 147.383 137.422C148.164 137.812 148.477 138.75 148.086 139.531C147.813 140.078 147.266 140.391 146.68 140.391Z" fill="black"/>
</g>
<g id="Group_32">
<path id="Vector_31" d="M54.6876 162.734C54.4532 162.734 54.2188 162.695 53.9844 162.578C53.2032 162.188 52.8907 161.25 53.2813 160.469C55.9376 155.117 52.8126 150.899 52.7735 150.859C52.5391 150.547 52.4219 150.117 52.461 149.688L53.086 145.273C52.3438 145.43 51.7579 145.742 51.211 146.172C50.2735 146.914 49.6876 152.5 50.0001 157.969C50.0391 158.828 49.4141 159.57 48.5157 159.609C47.6563 159.688 46.9141 159.023 46.8751 158.125C46.6407 154.492 46.4454 145.82 49.2969 143.633C50.1172 143.008 50.9766 142.539 51.8751 142.227C52.9688 141.836 54.1407 142.031 55.0001 142.734C55.8594 143.438 56.2891 144.531 56.1329 145.664L55.586 149.492C56.5626 151.133 58.9063 155.977 56.0157 161.797C55.8204 162.422 55.2735 162.734 54.6876 162.734Z" fill="black"/>
</g>
<g id="Group_33">
<path id="Vector_32" d="M114.883 39.375C114.531 39.375 114.219 39.2578 113.945 39.0625C113.047 38.3594 111.992 38.0078 110.898 38.0078C110.039 38.0078 109.336 37.3047 109.336 36.4453C109.336 35.5859 110.039 34.8828 110.898 34.8828C113.594 34.8828 115.82 32.6562 115.82 29.9609C115.82 29.1016 116.523 28.3984 117.383 28.3984C118.242 28.3984 118.945 29.1016 118.945 29.9609C118.945 31.2891 119.453 32.5391 120.43 33.4375C121.055 34.0234 121.055 35.0391 120.469 35.6641C119.883 36.2891 118.867 36.2891 118.242 35.7031C117.93 35.3906 117.656 35.0781 117.383 34.7266C116.914 35.3906 116.328 35.9766 115.664 36.4453C115.742 36.4844 115.781 36.5625 115.859 36.6016C116.523 37.1484 116.68 38.125 116.133 38.7891C115.82 39.1406 115.352 39.375 114.883 39.375Z" fill="black"/>
</g>
<g id="Group_34">
<g id="Group_35">
<path id="Vector_33" d="M167.188 99.4141C166.328 99.4141 165.625 98.7109 165.625 97.8516V89.7656C165.625 88.9062 166.328 88.2031 167.188 88.2031C168.047 88.2031 168.75 88.9062 168.75 89.7656V97.8516C168.75 98.7109 168.047 99.4141 167.188 99.4141Z" fill="black"/>
</g>
<g id="Group_36">
<path id="Vector_34" d="M171.25 95.3906H163.164C162.305 95.3906 161.602 94.6875 161.602 93.8281C161.602 92.9688 162.305 92.2656 163.164 92.2656H171.25C172.109 92.2656 172.812 92.9688 172.812 93.8281C172.812 94.6875 172.109 95.3906 171.25 95.3906Z" fill="black"/>
</g>
</g>
<g id="Group_37">
<path id="Vector_35" d="M29.4141 94.7656C29.2578 94.7656 29.0625 94.7266 28.8672 94.6875C26.4453 93.8281 24.8047 91.4453 24.8047 88.8281C24.8047 85.3906 27.6172 82.5781 31.0547 82.5781C33.75 82.5781 36.1328 84.2969 36.9922 86.875C37.2656 87.6953 36.7969 88.5938 35.9766 88.8281C35.1562 89.1016 34.2578 88.6328 34.0234 87.8125C33.5937 86.5234 32.4219 85.7031 31.0547 85.7031C29.3359 85.7031 27.9297 87.1094 27.9297 88.8281C27.9297 90.1172 28.75 91.2891 29.9609 91.7188C30.7812 91.9922 31.2109 92.8906 30.8984 93.7109C30.6641 94.375 30.0391 94.7656 29.4141 94.7656Z" fill="black"/>
</g>
<g id="Group_38">
<g id="Group_39">
<path id="Vector_36" d="M87.8906 46.25C86.6016 46.25 85.5078 45.1953 85.5078 43.8672C85.5078 42.5781 86.5625 41.4844 87.8906 41.4844C89.2188 41.4844 90.2734 42.5391 90.2734 43.8672C90.2734 45.1953 89.2188 46.25 87.8906 46.25Z" fill="black"/>
</g>
</g>
<g id="Group_40">
<path id="Vector_37" d="M141.992 48.2032C141.875 48.2032 141.797 48.2032 141.68 48.1641C140.82 48.0079 140.273 47.1875 140.469 46.3282L143.594 30.7032C143.75 29.8438 144.57 29.2969 145.43 29.4922C146.289 29.6485 146.836 30.4688 146.641 31.3282L143.516 46.9532C143.359 47.6953 142.734 48.2032 141.992 48.2032Z" fill="black"/>
</g>
<g id="Group_41">
<path id="Vector_38" d="M153.203 57.0705C152.539 57.0705 151.953 56.6799 151.719 56.0158C151.445 55.1955 151.875 54.2971 152.695 54.0236L167.734 48.7892C168.555 48.5158 169.453 48.9455 169.727 49.7658C170 50.5861 169.57 51.4846 168.75 51.758L153.711 56.9924C153.555 57.0314 153.398 57.0705 153.203 57.0705Z" fill="black"/>
</g>
<g id="Group_42">
<path id="Vector_39" d="M156.875 42.0313C156.484 42.0313 156.094 41.8751 155.82 41.6016C155.195 41.0157 155.156 40.0391 155.742 39.3751L170.547 23.672C171.133 23.047 172.109 23.0079 172.774 23.5938C173.399 24.1798 173.438 25.1563 172.852 25.8204L158.047 41.5235C157.695 41.8751 157.305 42.0313 156.875 42.0313Z" fill="black"/>
</g>
<g id="Group_43">
<path id="Vector_40" d="M146.68 52.8907C146.289 52.8907 145.899 52.7345 145.625 52.461C145 51.8751 144.961 50.8985 145.547 50.2345L151.602 43.7891C152.188 43.1641 153.164 43.1251 153.828 43.711C154.453 44.297 154.492 45.2735 153.906 45.9376L147.852 52.3829C147.5 52.7345 147.109 52.8907 146.68 52.8907Z" fill="black"/>
</g>
<g id="Group_44">
<path id="Vector_41" d="M66.211 48.2032C65.4688 48.2032 64.8438 47.6954 64.6876 46.9532L61.5626 31.3282C61.4063 30.4688 61.9532 29.6485 62.7735 29.4922C63.6329 29.336 64.4532 29.8829 64.6094 30.7032L67.7344 46.3282C67.8907 47.1876 67.3438 48.0079 66.5235 48.1641C66.4063 48.2032 66.3282 48.2032 66.211 48.2032Z" fill="black"/>
</g>
<g id="Group_45">
<path id="Vector_42" d="M54.9999 57.0705C54.8437 57.0705 54.6484 57.0314 54.4921 56.9924L39.4531 51.758C38.6328 51.4846 38.2031 50.5861 38.4765 49.7658C38.7499 48.9455 39.6484 48.5158 40.4687 48.7892L55.5078 54.0236C56.3281 54.2971 56.7578 55.1955 56.4843 56.0158C56.2499 56.6799 55.6249 57.0705 54.9999 57.0705Z" fill="black"/>
</g>
<g id="Group_46">
<path id="Vector_43" d="M51.9532 42.7345C51.5235 42.7345 51.1329 42.5782 50.8204 42.2266L35.3907 25.8204C34.8048 25.1954 34.8438 24.2188 35.4688 23.5938C36.0938 23.0079 37.0704 23.047 37.6954 23.672L53.1251 40.0782C53.711 40.7032 53.672 41.6798 53.047 42.3048C52.7345 42.5782 52.3438 42.7345 51.9532 42.7345Z" fill="black"/>
</g>
<g id="Group_47">
<path id="Vector_44" d="M61.5235 52.8907C61.0938 52.8907 60.7032 52.7345 60.3907 52.3829L54.8048 46.4845C54.2188 45.8595 54.2579 44.8829 54.8829 44.2579C55.5079 43.672 56.4845 43.711 57.1095 44.336L62.6563 50.2345C63.2423 50.8595 63.2032 51.836 62.5782 52.461C62.3048 52.7345 61.9141 52.8907 61.5235 52.8907Z" fill="black"/>
</g>
<g id="Group_48">
<path id="Vector_45" d="M156.328 151.445C155.469 151.445 154.766 150.742 154.766 149.883C154.766 149.023 155.469 148.32 156.328 148.32C157.188 148.32 157.891 149.023 157.891 149.883C157.891 150.742 157.188 151.445 156.328 151.445Z" fill="black"/>
</g>
</g>
</g>
</svg>
