<svg width="20" height="20" viewBox="0 0 20 20" fill="none" xmlns="http://www.w3.org/2000/svg">
<g id="SwimmingPool">
<path id="Vector" d="M6.875 11.6711C7.12364 11.6711 7.3621 11.5723 7.53791 11.3965C7.71373 11.2207 7.8125 10.9822 7.8125 10.7336V10.625H12.1875V10.882C12.1875 11.1307 12.2863 11.3691 12.4621 11.5449C12.6379 11.7208 12.8764 11.8195 13.125 11.8195C13.3736 11.8195 13.6121 11.7208 13.7879 11.5449C13.9637 11.3691 14.0625 11.1307 14.0625 10.882V2.5C14.0625 2.25136 13.9637 2.0129 13.7879 1.83709C13.6121 1.66127 13.3736 1.5625 13.125 1.5625C12.8764 1.5625 12.6379 1.66127 12.4621 1.83709C12.2863 2.0129 12.1875 2.25136 12.1875 2.5V3.125H7.8125V2.5C7.8125 2.25136 7.71373 2.0129 7.53791 1.83709C7.3621 1.66127 7.12364 1.5625 6.875 1.5625C6.62636 1.5625 6.3879 1.66127 6.21209 1.83709C6.03627 2.0129 5.9375 2.25136 5.9375 2.5V10.7336C5.9375 10.9822 6.03627 11.2207 6.21209 11.3965C6.3879 11.5723 6.62636 11.6711 6.875 11.6711ZM7.8125 8.75V7.8125H12.1875V8.75H7.8125ZM12.1875 5V5.9375H7.8125V5H12.1875ZM1.5625 12.8125C1.5625 12.5639 1.66127 12.3254 1.83709 12.1496C2.0129 11.9738 2.25136 11.875 2.5 11.875C3.72109 11.875 4.375 12.3086 4.89531 12.6562C5.31719 12.9375 5.59844 13.125 6.25 13.125C6.90156 13.125 7.18203 12.9391 7.60469 12.6562C8.12734 12.307 8.77656 11.875 9.99922 11.875C11.2219 11.875 11.8742 12.3086 12.3945 12.6562C12.8172 12.9375 13.0977 13.125 13.75 13.125C14.4023 13.125 14.6828 12.9391 15.1047 12.6562C15.6281 12.307 16.2766 11.875 17.5 11.875C17.7486 11.875 17.9871 11.9738 18.1629 12.1496C18.3387 12.3254 18.4375 12.5639 18.4375 12.8125C18.4375 13.0611 18.3387 13.2996 18.1629 13.4754C17.9871 13.6512 17.7486 13.75 17.5 13.75C16.8461 13.75 16.5672 13.9359 16.1445 14.2188C15.6219 14.568 14.9727 15 13.75 15C12.5273 15 11.875 14.5664 11.3547 14.2188C10.932 13.9375 10.6516 13.75 9.99922 13.75C9.34687 13.75 9.06719 13.9359 8.64453 14.2188C8.12188 14.568 7.47266 15 6.25 15C5.02734 15 4.375 14.5664 3.85469 14.2188C3.43281 13.9375 3.15156 13.75 2.5 13.75C2.25136 13.75 2.0129 13.6512 1.83709 13.4754C1.66127 13.2996 1.5625 13.0611 1.5625 12.8125ZM18.4375 16.25C18.4375 16.4986 18.3387 16.7371 18.1629 16.9129C17.9871 17.0887 17.7486 17.1875 17.5 17.1875C16.8461 17.1875 16.5672 17.3734 16.1445 17.6562C15.6219 18.0055 14.9727 18.4375 13.75 18.4375C12.5273 18.4375 11.875 18.0039 11.3547 17.6562C10.932 17.375 10.6516 17.1875 9.99922 17.1875C9.34687 17.1875 9.06719 17.3734 8.64453 17.6562C8.12188 18.0055 7.47266 18.4375 6.25 18.4375C5.02734 18.4375 4.375 18.0039 3.85469 17.6562C3.43281 17.375 3.15156 17.1875 2.5 17.1875C2.25136 17.1875 2.0129 17.0887 1.83709 16.9129C1.66127 16.7371 1.5625 16.4986 1.5625 16.25C1.5625 16.0014 1.66127 15.7629 1.83709 15.5871C2.0129 15.4113 2.25136 15.3125 2.5 15.3125C3.72109 15.3125 4.375 15.7461 4.89531 16.0938C5.31719 16.375 5.59844 16.5625 6.25 16.5625C6.90156 16.5625 7.18203 16.3766 7.60469 16.0938C8.12734 15.7445 8.77656 15.3125 9.99922 15.3125C11.2219 15.3125 11.8742 15.7461 12.3945 16.0938C12.8172 16.375 13.0977 16.5625 13.75 16.5625C14.4023 16.5625 14.6828 16.3766 15.1047 16.0938C15.6281 15.7445 16.2766 15.3125 17.5 15.3125C17.7486 15.3125 17.9871 15.4113 18.1629 15.5871C18.3387 15.7629 18.4375 16.0014 18.4375 16.25Z" fill="#475367"/>
</g>
</svg>
