<svg width="20" height="20" viewBox="0 0 20 20" fill="none" xmlns="http://www.w3.org/2000/svg">
<path d="M19.625 9.25001L15.875 6.43751C15.7357 6.33304 15.5701 6.26943 15.3967 6.25379C15.2233 6.23816 15.049 6.27112 14.8932 6.34898C14.7375 6.42684 14.6065 6.54653 14.515 6.69463C14.4235 6.84274 14.375 7.0134 14.375 7.18751V9.06251H5.9375V5.93751H7.97344C8.19459 6.56302 8.62975 7.09021 9.20201 7.42591C9.77427 7.76161 10.4468 7.88419 11.1007 7.772C11.7546 7.65981 12.3478 7.32006 12.7754 6.81281C13.203 6.30556 13.4376 5.66346 13.4376 5.00001C13.4376 4.33655 13.203 3.69445 12.7754 3.1872C12.3478 2.67995 11.7546 2.3402 11.1007 2.22801C10.4468 2.11582 9.77427 2.2384 9.20201 2.5741C8.62975 2.9098 8.19459 3.43699 7.97344 4.06251H5.625C5.2106 4.06251 4.81317 4.22713 4.52015 4.52015C4.22712 4.81318 4.0625 5.21061 4.0625 5.62501V9.06251H0.9375C0.68886 9.06251 0.450403 9.16128 0.274587 9.33709C0.098772 9.51291 0 9.75137 0 10C0 10.2486 0.098772 10.4871 0.274587 10.6629C0.450403 10.8387 0.68886 10.9375 0.9375 10.9375H4.0625V14.375C4.0625 14.7894 4.22712 15.1868 4.52015 15.4799C4.81317 15.7729 5.2106 15.9375 5.625 15.9375H7.8125V16.25C7.8125 16.6644 7.97712 17.0618 8.27015 17.3549C8.56317 17.6479 8.9606 17.8125 9.375 17.8125H11.875C12.2894 17.8125 12.6868 17.6479 12.9799 17.3549C13.2729 17.0618 13.4375 16.6644 13.4375 16.25V13.75C13.4375 13.3356 13.2729 12.9382 12.9799 12.6452C12.6868 12.3521 12.2894 12.1875 11.875 12.1875H9.375C8.9606 12.1875 8.56317 12.3521 8.27015 12.6452C7.97712 12.9382 7.8125 13.3356 7.8125 13.75V14.0625H5.9375V10.9375H14.375V12.8125C14.375 12.9866 14.4235 13.1573 14.515 13.3054C14.6065 13.4535 14.7375 13.5732 14.8932 13.651C15.049 13.7289 15.2233 13.7619 15.3967 13.7462C15.5701 13.7306 15.7357 13.667 15.875 13.5625L19.625 10.75C19.7414 10.6627 19.8359 10.5494 19.901 10.4193C19.9661 10.2891 20 10.1455 20 10C20 9.85446 19.9661 9.71092 19.901 9.58074C19.8359 9.45057 19.7414 9.33733 19.625 9.25001ZM10.625 4.06251C10.8104 4.06251 10.9917 4.11749 11.1458 4.2205C11.3 4.32352 11.4202 4.46993 11.4911 4.64124C11.5621 4.81255 11.5807 5.00105 11.5445 5.1829C11.5083 5.36476 11.419 5.53181 11.2879 5.66292C11.1568 5.79403 10.9898 5.88332 10.8079 5.91949C10.626 5.95567 10.4375 5.9371 10.2662 5.86614C10.0949 5.79519 9.94851 5.67502 9.8455 5.52085C9.74248 5.36668 9.6875 5.18543 9.6875 5.00001C9.6875 4.75137 9.78627 4.51291 9.96209 4.33709C10.1379 4.16128 10.3764 4.06251 10.625 4.06251ZM9.6875 14.0625H11.5625V15.9375H9.6875V14.0625ZM16.25 10.9375V9.06251L17.5 10L16.25 10.9375Z" fill="#475367"/>
</svg>
