<svg width="20" height="20" viewBox="0 0 20 20" fill="none" xmlns="http://www.w3.org/2000/svg">
<g id="Wine">
<path id="Vector" d="M16.3415 7.38594L14.64 1.61016C14.5828 1.41612 14.4645 1.24576 14.3025 1.12453C14.1406 1.0033 13.9438 0.937689 13.7415 0.9375H6.25873C6.05645 0.937689 5.85966 1.0033 5.69773 1.12453C5.53581 1.24576 5.41743 1.41612 5.36029 1.61016L3.65873 7.38594C3.3755 8.3268 3.36097 9.32811 3.61678 10.2768C3.87259 11.2255 4.38854 12.0838 5.10638 12.7547C6.19665 13.7772 7.58052 14.4314 9.06263 14.625V17.1875H6.87513C6.62649 17.1875 6.38804 17.2863 6.21222 17.4621C6.03641 17.6379 5.93763 17.8764 5.93763 18.125C5.93763 18.3736 6.03641 18.6121 6.21222 18.7879C6.38804 18.9637 6.62649 19.0625 6.87513 19.0625H13.1251C13.3738 19.0625 13.6122 18.9637 13.788 18.7879C13.9639 18.6121 14.0626 18.3736 14.0626 18.125C14.0626 17.8764 13.9639 17.6379 13.788 17.4621C13.6122 17.2863 13.3738 17.1875 13.1251 17.1875H10.9376V14.625C12.42 14.4315 13.8042 13.7773 14.8947 12.7547C15.6124 12.0837 16.1282 11.2254 16.3839 10.2767C16.6395 9.328 16.6249 8.32673 16.3415 7.38594ZM6.95951 2.8125H13.0408L14.4767 7.68828C13.6267 7.90703 12.2853 7.92266 10.4236 6.97578C8.64701 6.07656 7.18138 5.85938 6.03451 5.95469L6.95951 2.8125ZM10.0001 12.8125C8.65768 12.8141 7.36517 12.3036 6.38607 11.3852C5.92888 10.9556 5.59935 10.408 5.43391 9.80287C5.26846 9.19775 5.27353 8.55867 5.44857 7.95625C6.8892 7.53984 8.46732 8.08594 9.57904 8.64922C10.4814 9.10625 11.9369 9.68672 13.5056 9.68672C13.8803 9.68775 14.2542 9.65243 14.622 9.58125C14.4836 10.2728 14.132 10.9037 13.6165 11.3852C12.6369 12.3042 11.3434 12.8147 10.0001 12.8125Z" fill="#475367"/>
</g>
</svg>
